<svg xmlns="http://www.w3.org/2000/svg" width="166.702" height="118.634" viewBox="0 0 166.702 118.634">
  <defs>
    <style>
      .cls-1, .cls-2 {
        fill: #fff;
      }

      .cls-1 {
        stroke: #fff;
        stroke-width: 5px;
      }
    </style>
  </defs>
  <g id="Group_41" data-name="Group 41" transform="translate(-134.586 -63.513)">
    <path id="Path_8" data-name="Path 8" class="cls-1" d="M9762.643,933.66c-.223-.948-.253-1.118-1.68-1.743s-2.407-.564-4.887,0-4.25,1.554-5.751,4.763a8.394,8.394,0,0,0,2.364,9.847c3.012,2.615,6.6,1.032,4.4,4.24s-8.7,4.386-13.3,7.917c-1.583,1.214-3.915,2.213-4.956,3.357a26.543,26.543,0,0,1-2.578,1.77c-1.681,1.364-5.582,4.92-6.385,5.654a44.543,44.543,0,0,0-8.689,12.523c-.887,2.081-2.779,5.466-3.418,7.286-1.244,3.549-1.439,9.378-1.439,9.378s.266,10.421,4.857,13.761c1.061.772-6.621,4.273-7,4.984-1.182,2.206-4.823,4.457-2.541,9.446a14.457,14.457,0,0,0,6.885,6.9s7.26,1.621,11.993,2.325a61.713,61.713,0,0,0,9.114.617h49.284l8.28.7h0a8.588,8.588,0,0,1,6.061,2.5c.168.165-2.416,2.8-1.609,4.708s3.4-1.107,6.4-4.049c2.854-2.8-2.687-5.911-6.89-7.483-.174-.065.694-.095.486-.166-4.326-1.472,4.5,1.944,2.324.846s-9.734-1.6-9.734-1.6h-44.855l-18.864-1.176a17.283,17.283,0,0,1-12.753-4.892c-5.611-5.559,7.318-10.208,7.318-10.208l1.111,1.531s-2.023,1-2.1,4.226,18.737,2.178,25.888,2.324,2.715-1.739,2.715-1.739a23.306,23.306,0,0,0-6.493-1.156c-1.868.09-2.526-.458-2.379-2.418.052-.685-.39-1.012,2.379-1.522,4.449-1.314,5.63-2.26,7.522-3.7,8.938-6.894,10.051-15.9,24.238-12.514s13.479,6.128,13.479,6.128-.457,4.92,2.795,6.387,2-12.514,2-12.514-2.335-9.07-8.419-12.673-6.069-7.939-6.069-7.939v-5.815l2.276-7.025s.7-2.164,4.888-3.633c1.66-.582,2.62.6,5.322,0,1.59-.354,4.316-.243,6.018-.876,2.5-.93,6.919-5.461,12.234-6.044,1.941-.213,1.272-2.657,1.018-3.458-.4-1.276-.965.984-4.715-4.892s-12.553-7.262-12.553-7.262a72.446,72.446,0,0,0-12.816-1.2c-6.088.1-6.508-.195-11.3,0-1.234.05-.168-.349-.773-2.241s-.4-2.959-3.454-4.173-4.27.965-4.27.965h0A1.11,1.11,0,0,1,9762.643,933.66Z" transform="translate(-9573.896 -865.543)"/>
    <g id="Group_8" data-name="Group 8" transform="translate(201.541 77.035)">
      <g id="Union_9" data-name="Union 9" transform="translate(0 0)">
        <path id="Path_1" data-name="Path 1" class="cls-2" d="M-10469.566-925.538h-68.426a20.222,20.222,0,0,1-2.793-.173,5.671,5.671,0,0,1-.873-.185.754.754,0,0,1-.307-.148.756.756,0,0,1,.307-.148,5.662,5.662,0,0,1,.873-.185,20.19,20.19,0,0,1,2.793-.173h68.426a22.4,22.4,0,0,1,2.24.1l.135.014.039-.119,23.387-72.958a.611.611,0,0,1,.6-.378.752.752,0,0,1,.164.018.614.614,0,0,1,.389.257.426.426,0,0,1,.048.357l-23.37,72.9-.042.13.138.049a.64.64,0,0,1,.246.127,1.085,1.085,0,0,1-.484.2l-.048.012-.032.035a.676.676,0,0,1-.5.206.745.745,0,0,1-.164-.018.727.727,0,0,1-.145-.049l-.044-.021-.05.006A21.309,21.309,0,0,1-10469.566-925.538Z" transform="translate(10542.132 1000.033)"/>
        <path id="Path_2" data-name="Path 2" class="cls-2" d="M-10470.437-926.538a21.146,21.146,0,0,0,2.486-.133l.1-.012.09.042a.515.515,0,0,0,.109.037.576.576,0,0,0,.126.014.51.51,0,0,0,.375-.152l.063-.071.1-.025c.078-.02.142-.039.193-.057l-.246-.087.084-.26,23.369-72.9a.28.28,0,0,0-.033-.242.447.447,0,0,0-.286-.188.576.576,0,0,0-.126-.014.452.452,0,0,0-.445.272l-23.388,72.958-.076.238-.269-.028a22.243,22.243,0,0,0-2.224-.1h-68.425a20.7,20.7,0,0,0-2.639.153,5.549,5.549,0,0,0-1,.2,5.543,5.543,0,0,0,1,.2,20.71,20.71,0,0,0,2.639.153h68.425m0,.3h-68.425c-2.286,0-4.14-.292-4.14-.653s1.854-.653,4.14-.653h68.425a22.556,22.556,0,0,1,2.259.106l23.389-72.958a.771.771,0,0,1,.754-.484.937.937,0,0,1,.2.022.649.649,0,0,1,.551.8l-23.369,72.9c.228.081.354.17.354.265,0,.125-.223.241-.608.341a.842.842,0,0,1-.622.259.919.919,0,0,1-.2-.022.886.886,0,0,1-.18-.06A21.577,21.577,0,0,1-10470.437-926.243Z" transform="translate(10543.001 1000.885)"/>
      </g>
    </g>
  </g>
</svg>
